<?xml version="1.0" standalone="no"?>
<!DOCTYPE svg PUBLIC "-//W3C//DTD SVG 20010904//EN"
 "http://www.w3.org/TR/2001/REC-SVG-20010904/DTD/svg10.dtd">
<svg version="1.0" xmlns="http://www.w3.org/2000/svg"
 width="300.000000pt" height="156.000000pt" viewBox="0 0 300.000000 156.000000"
 preserveAspectRatio="xMidYMid meet">
<metadata>
Created by potrace 1.10, written by Peter Selinger 2001-2011
</metadata>
<g transform="translate(0.000000,156.000000) scale(0.100000,-0.100000)"
fill="#000000" stroke="none">
<path d="M2082 1150 c-9 -16 -25 -30 -34 -30 -16 0 -18 -15 -18 -165 l0 -165
76 0 c74 0 76 1 70 23 -3 12 -6 25 -6 30 0 4 -18 7 -40 7 -40 0 -40 0 -40 40
0 39 1 40 36 40 33 0 35 2 32 28 -2 22 -8 28 -35 30 -30 3 -33 6 -33 38 0 33
1 34 40 34 38 0 40 2 40 30 0 27 -3 30 -32 30 l-32 0 29 30 29 30 -33 0 c-25
0 -36 -6 -49 -30z m78 -55 c0 -11 -11 -15 -40 -15 l-40 0 0 -55 c0 -54 0 -55
30 -55 20 0 30 -5 30 -15 0 -10 -10 -15 -32 -15 l-33 0 3 -50 4 -50 39 0 c28
0 39 -4 39 -15 0 -12 -13 -15 -60 -15 l-60 0 0 150 0 150 60 0 c47 0 60 -3 60
-15z"/>
<path d="M1112 958 l3 -163 68 -3 67 -3 0 31 c0 28 -2 30 -40 30 l-40 0 0 135
0 135 -30 0 -30 0 2 -162z m48 17 l0 -135 40 0 c29 0 40 -4 40 -15 0 -12 -13
-15 -55 -15 l-55 0 0 150 c0 127 2 150 15 150 13 0 15 -22 15 -135z"/>
<path d="M1262 958 l3 -163 28 -3 27 -3 0 165 0 166 -30 0 -30 0 2 -162z m48
2 c0 -143 -1 -150 -20 -150 -19 0 -20 7 -20 143 0 79 3 147 7 150 3 4 12 7 20
7 10 0 13 -32 13 -150z"/>
<path d="M1350 955 l0 -165 33 0 c52 0 106 19 118 42 13 25 6 121 -9 126 -7 2
-5 15 4 39 31 74 -9 123 -101 123 l-45 0 0 -165z m105 141 c32 -14 35 -18 35
-59 0 -28 -6 -49 -15 -57 -14 -11 -13 -14 2 -25 11 -9 17 -28 17 -64 1 -64
-17 -81 -86 -81 l-48 0 0 150 0 150 30 0 c17 0 46 -7 65 -14z"/>
<path d="M1397 1073 c-4 -3 -7 -26 -7 -50 0 -39 2 -43 25 -43 24 0 45 25 45
54 0 29 -45 58 -63 39z m41 -45 c-4 -46 -28 -49 -28 -4 0 26 4 36 16 36 11 0
14 -8 12 -32z"/>
<path d="M1397 943 c-4 -3 -7 -28 -7 -55 l0 -49 33 3 c30 3 32 6 35 43 3 29
-1 43 -14 52 -20 14 -37 17 -47 6z m49 -28 c9 -23 -5 -65 -21 -65 -11 0 -15
11 -15 40 0 29 4 40 15 40 9 0 18 -7 21 -15z"/>
<path d="M1530 955 l0 -165 70 0 70 0 0 30 c0 28 -2 30 -40 30 -40 0 -40 0
-40 40 0 38 2 40 30 40 27 0 30 3 30 30 0 27 -3 30 -30 30 -28 0 -30 3 -30 35
0 34 1 35 40 35 38 0 40 2 40 30 l0 30 -70 0 -70 0 0 -165z m130 141 c0 -10
-14 -16 -42 -18 l-43 -3 0 -50 c0 -49 1 -50 33 -53 46 -5 43 -32 -3 -32 l-35
0 0 -50 0 -50 45 0 c33 0 45 -4 45 -15 0 -12 -13 -15 -60 -15 l-60 0 0 150 0
150 60 0 c46 0 60 -3 60 -14z"/>
<path d="M1690 956 l0 -166 30 0 30 0 0 65 c0 51 3 65 15 65 16 0 23 -23 27
-85 3 -37 5 -40 32 -40 l30 0 -3 60 c-1 33 -8 69 -16 80 -11 18 -10 24 2 40
18 25 12 100 -11 123 -9 9 -39 17 -76 20 l-60 4 0 -166z m128 131 c20 -20 21
-77 2 -112 -11 -20 -11 -28 -2 -34 7 -4 15 -35 18 -69 7 -59 6 -62 -15 -62
-19 0 -21 6 -21 49 0 50 -20 86 -44 78 -6 -2 -12 -31 -14 -65 -3 -54 -6 -62
-22 -62 -19 0 -20 8 -20 151 l0 152 51 -5 c28 -3 58 -13 67 -21z"/>
<path d="M1747 1073 c-4 -3 -7 -28 -7 -55 0 -48 1 -49 28 -46 24 3 27 8 30 43
3 29 -1 43 -14 52 -20 15 -28 16 -37 6z m38 -53 c0 -25 -5 -36 -17 -38 -15 -3
-18 4 -18 38 0 34 3 41 18 38 12 -2 17 -13 17 -38z"/>
<path d="M1855 1110 c-12 -20 6 -50 31 -50 l24 0 0 -136 0 -135 28 3 27 3 3
132 c2 127 3 132 25 135 16 2 23 11 25 31 l3 27 -80 0 c-44 0 -83 -5 -86 -10z
m155 -14 c0 -9 -12 -16 -27 -18 l-28 -3 -3 -132 c-2 -108 -5 -133 -17 -133
-12 0 -15 25 -17 133 -3 128 -4 132 -25 135 -13 2 -23 10 -23 18 0 11 16 14
70 14 54 0 70 -3 70 -14z"/>
<path d="M1117 653 c-4 -3 -7 -17 -7 -30 0 -18 5 -23 25 -23 l25 0 0 -135 0
-135 30 0 30 0 0 135 0 135 25 0 c21 0 25 5 25 30 l0 30 -73 0 c-41 0 -77 -3
-80 -7z m143 -28 c0 -9 -9 -15 -25 -15 l-25 0 0 -136 c0 -124 -2 -135 -17
-132 -16 3 -18 19 -21 136 l-3 132 -24 0 c-16 0 -25 6 -25 15 0 12 14 15 70
15 56 0 70 -3 70 -15z"/>
<path d="M1323 650 c-35 -14 -43 -43 -43 -158 0 -95 3 -113 21 -136 25 -32 75
-35 110 -7 22 17 24 29 27 116 5 129 -2 161 -38 180 -33 17 -45 18 -77 5z
m100 -61 c13 -51 4 -206 -14 -224 -26 -25 -63 -28 -90 -7 -22 19 -24 28 -27
119 -2 54 1 110 7 126 23 59 107 50 124 -14z"/>
<path d="M1337 604 c-4 -4 -7 -56 -7 -115 0 -89 3 -108 16 -113 36 -14 45 12
42 123 -3 98 -5 106 -23 109 -12 2 -24 0 -28 -4z m37 -20 c9 -24 7 -167 -3
-183 -5 -7 -14 -10 -20 -7 -12 8 -16 188 -4 199 11 11 20 8 27 -9z"/>
<path d="M1460 516 c0 -133 2 -148 20 -166 27 -27 83 -27 110 0 18 18 20 33
20 165 l0 145 -25 0 c-25 0 -25 0 -25 -97 0 -120 -8 -173 -26 -173 -10 0 -14
30 -16 133 l-3 132 -27 3 -28 3 0 -145z m43 -2 c5 -132 13 -152 49 -133 16 9
18 24 18 134 0 104 2 125 15 125 13 0 15 -21 15 -130 0 -117 -2 -132 -20 -150
-26 -26 -64 -26 -90 0 -18 18 -20 33 -20 150 0 103 3 130 14 130 10 0 14 -29
19 -126z"/>
<path d="M1668 528 c-3 -129 -4 -133 -25 -136 -18 -3 -23 -10 -23 -33 0 -26 3
-29 30 -29 37 0 67 29 75 72 3 18 5 83 3 143 l-3 110 -27 3 -27 3 -3 -133z
m42 -22 c0 -140 -2 -146 -47 -160 -30 -9 -32 19 -3 34 18 10 20 21 20 135 0
104 2 125 15 125 13 0 15 -22 15 -134z"/>
<path d="M1783 648 c-27 -13 -31 -26 -34 -103 -5 -184 6 -215 76 -215 52 0 72
26 80 103 11 102 -2 183 -32 207 -28 22 -56 24 -90 8z m99 -31 c14 -22 9 -231
-6 -252 -19 -26 -83 -26 -102 0 -15 21 -20 230 -6 252 20 32 94 32 114 0z"/>
<path d="M1809 609 c-15 -9 -26 -159 -15 -203 7 -30 31 -40 51 -20 11 11 15
37 15 97 0 117 -13 150 -51 126z m31 -114 c0 -87 -3 -105 -15 -105 -12 0 -15
18 -15 105 0 87 3 105 15 105 12 0 15 -18 15 -105z"/>
<path d="M1922 514 c3 -139 4 -147 27 -165 30 -24 72 -24 102 0 23 19 24 24
24 163 l0 143 -25 0 -25 0 -3 -133 c-2 -120 -4 -133 -20 -130 -15 3 -17 20
-20 136 l-3 132 -30 0 -30 0 3 -146z m48 2 c0 -129 8 -154 44 -140 17 7 21 51
16 192 -2 61 0 72 14 72 15 0 16 -16 14 -137 l-3 -137 -27 -16 c-25 -13 -31
-13 -55 0 l-28 16 -3 137 c-2 117 0 137 13 137 13 0 15 -19 15 -124z"/>
<path d="M2107 653 c-4 -3 -7 -78 -7 -165 l0 -158 30 0 30 0 0 65 c0 36 4 65
10 65 17 0 30 -37 30 -84 0 -45 1 -46 33 -46 l33 0 -7 70 c-3 38 -11 75 -17
82 -7 9 -6 18 4 32 16 23 19 79 4 106 -16 30 -122 55 -143 33z m119 -27 c22
-17 25 -95 4 -121 -10 -12 -10 -18 0 -30 6 -8 14 -41 17 -75 5 -56 4 -60 -16
-60 -19 0 -21 6 -21 53 0 55 -12 77 -42 77 -15 0 -18 -9 -18 -65 0 -58 -2 -65
-20 -65 -19 0 -20 7 -20 150 l0 150 48 0 c27 0 57 -6 68 -14z"/>
<path d="M2150 555 c0 -57 6 -63 41 -45 13 7 19 21 19 43 0 37 -15 57 -42 57
-15 0 -18 -9 -18 -55z m45 25 c9 -27 -3 -60 -21 -60 -10 0 -14 12 -14 40 0 43
23 57 35 20z"/>
<path d="M2313 648 c-50 -24 -51 -110 -2 -154 29 -26 61 -82 54 -94 -12 -20
-35 -10 -35 15 0 21 -5 25 -31 25 -31 0 -31 -1 -25 -37 20 -111 168 -90 153
21 -4 27 -17 51 -45 80 -44 46 -54 67 -42 86 9 15 30 5 30 -16 0 -9 11 -14 30
-14 23 0 30 5 30 19 0 33 -11 51 -41 66 -32 17 -46 18 -76 3z m83 -22 c7 -6
15 -21 19 -33 5 -18 2 -23 -13 -23 -11 0 -22 9 -25 20 -6 24 -45 27 -53 5 -9
-23 14 -70 46 -94 80 -59 40 -191 -46 -150 -33 16 -48 69 -20 69 9 0 16 -8 16
-19 0 -23 28 -35 46 -20 24 19 16 45 -32 102 -40 50 -45 60 -42 99 2 34 8 45
28 55 26 13 57 9 76 -11z"/>
</g>
</svg>
